<svg width="80" height="80" viewBox="0 0 80 80" fill="none" xmlns="http://www.w3.org/2000/svg">
<path d="M66 0H14C6.26801 0 0 6.26801 0 14V66C0 73.732 6.26801 80 14 80H66C73.732 80 80 73.732 80 66V14C80 6.26801 73.732 0 66 0Z" fill="#071D34"/>
<path d="M40.3444 57.2H21.2676C20.9557 57.2 20.7998 57.0263 20.7998 56.6788V23.217C20.7998 22.939 20.9384 22.8 21.2156 22.8H26.7775C26.9855 22.8 27.0894 22.9217 27.0894 23.1649V52.3007H41.332C41.6439 52.3007 41.7652 52.4396 41.6959 52.7176L40.8642 56.7831C40.7949 57.0611 40.6216 57.2 40.3444 57.2Z" fill="#55A5F9"/>
<path d="M44.5052 31.817H49.3914C49.6686 31.817 49.8592 31.956 49.9632 32.234C50.2404 32.9289 50.4137 33.9366 50.483 35.257C52.4929 32.651 55.1439 31.3479 58.4359 31.3479C58.6785 31.3479 58.7998 31.4695 58.7998 31.7128V36.977C58.7998 37.255 58.6612 37.3766 58.384 37.3419C55.3691 37.1681 52.9953 37.9499 51.2627 39.6873C50.9508 40 50.7948 40.417 50.7948 40.9382V56.8352C50.7948 57.0784 50.6562 57.2 50.379 57.2H44.9211C44.6092 57.2 44.4533 57.0611 44.4533 56.7831V39.1661C44.4533 36.3516 44.3666 34.0235 44.1934 32.1819C44.1587 31.9386 44.2627 31.817 44.5052 31.817Z" fill="#55A5F9"/>
</svg>
