<svg width="80" height="80" viewBox="0 0 80 80" fill="none" xmlns="http://www.w3.org/2000/svg">
<path d="M66 0H14C6.26801 0 0 6.26801 0 14V66C0 73.732 6.26801 80 14 80H66C73.732 80 80 73.732 80 66V14C80 6.26801 73.732 0 66 0Z" fill="#2E0501"/>
<path d="M40.6645 48.8476H28.6272L25.6179 57.9824C25.5833 58.2608 25.3931 58.4 25.0472 58.4H19.5993C19.2534 58.4 19.1323 58.226 19.2361 57.878L30.0281 26.872C30.2703 26.35 30.4259 25.3757 30.4951 23.9489C30.4951 23.7401 30.6162 23.6357 30.8583 23.6357H38.3297C38.5026 23.6357 38.641 23.7227 38.7448 23.8967L50.782 57.9302C50.8858 58.2434 50.782 58.4 50.4707 58.4H44.3483C44.1062 58.4 43.9332 58.2782 43.8295 58.0346L40.6645 48.8476ZM29.9762 43.7844H39.3155C39.1771 43.2972 38.4507 41.0874 37.1363 37.1552C35.8565 33.1881 35.0091 30.4737 34.594 29.0122H34.5421C34.127 30.7869 32.6051 35.711 29.9762 43.7844Z" fill="#F2A032"/>
<path d="M54.0033 57.9302V33.3969C54.0033 33.1185 54.1417 32.9793 54.4184 32.9793H60.1776C60.4543 32.9793 60.5927 33.1185 60.5927 33.3969V57.9824C60.5927 58.2608 60.4543 58.4 60.1776 58.4H54.4703C54.159 58.4 54.0033 58.2434 54.0033 57.9302ZM59.8663 27.7072C59.2437 28.3336 58.3962 28.6468 57.3239 28.6468C56.2516 28.6468 55.4042 28.3336 54.7816 27.7072C54.159 27.0808 53.8476 26.2283 53.8476 25.1495C53.8476 24.1055 54.1763 23.2529 54.8335 22.5917C55.4907 21.9306 56.3381 21.6 57.3758 21.6C58.4135 21.6 59.2437 21.9306 59.8663 22.5917C60.4889 23.2529 60.8002 24.1055 60.8002 25.1495C60.8002 26.2283 60.4889 27.0808 59.8663 27.7072Z" fill="#F2A032"/>
</svg>
