<svg width="81" height="81" viewBox="0 0 81 81" fill="none" xmlns="http://www.w3.org/2000/svg">
<g clip-path="url(#clip0_242_210)">
<path d="M14.3438 6.52872e-06H66.6562C68.5404 -0.00181483 70.4064 0.377467 72.1475 1.11615C73.8885 1.85482 75.4705 2.9384 76.8028 4.30485C78.1351 5.67131 79.1916 7.29382 79.9118 9.07953C80.632 10.8652 81.0018 12.7791 81 14.7115V66.2885C81.0018 68.2209 80.632 70.1348 79.9118 71.9205C79.1916 73.7062 78.1351 75.3287 76.8028 76.6951C75.4705 78.0616 73.8885 79.1452 72.1475 79.8839C70.4064 80.6225 68.5404 81.0018 66.6562 81H14.3438C12.4596 81.0018 10.5936 80.6225 8.85254 79.8839C7.11147 79.1452 5.52953 78.0616 4.19723 76.6951C2.86494 75.3287 1.80845 73.7062 1.08824 71.9205C0.368031 70.1348 -0.00176946 68.2209 6.36551e-06 66.2885V14.7115C-0.00176946 12.7791 0.368031 10.8652 1.08824 9.07953C1.80845 7.29382 2.86494 5.67131 4.19723 4.30485C5.52953 2.9384 7.11147 1.85482 8.85254 1.11615C10.5936 0.377467 12.4596 -0.00181483 14.3438 6.52872e-06Z" fill="#000B1D"/>
<path d="M32.7373 65.205C37.3972 65.205 41.1748 61.4274 41.1748 56.7675V48.33H32.7373C28.0774 48.33 24.2998 52.1076 24.2998 56.7675C24.2998 61.4274 28.0774 65.205 32.7373 65.205Z" fill="#0ACF83"/>
<path d="M24.2998 39.8925C24.2998 35.2326 28.0774 31.455 32.7373 31.455H41.1748V48.33H32.7373C28.0774 48.33 24.2998 44.5524 24.2998 39.8925Z" fill="#A259FF"/>
<path d="M24.2998 23.0175C24.2998 18.3576 28.0774 14.58 32.7373 14.58H41.1748V31.455H32.7373C28.0774 31.455 24.2998 27.6774 24.2998 23.0175Z" fill="#F24E1E"/>
<path d="M41.1748 14.58H49.6123C54.2722 14.58 58.0498 18.3576 58.0498 23.0175C58.0498 27.6774 54.2722 31.455 49.6123 31.455H41.1748V14.58Z" fill="#FF7262"/>
<path d="M58.0498 39.8925C58.0498 44.5524 54.2722 48.33 49.6123 48.33C44.9524 48.33 41.1748 44.5524 41.1748 39.8925C41.1748 35.2326 44.9524 31.455 49.6123 31.455C54.2722 31.455 58.0498 35.2326 58.0498 39.8925Z" fill="#1ABCFE"/>
</g>
<defs>
<clipPath id="clip0_242_210">
<rect width="81" height="81" fill="white"/>
</clipPath>
</defs>
</svg>
