<svg width="82" height="80" viewBox="0 0 82 80" fill="none" xmlns="http://www.w3.org/2000/svg">
<path d="M67.65 0H14.35C6.42471 0 0 6.26801 0 14V66C0 73.732 6.42471 80 14.35 80H67.65C75.5753 80 82 73.732 82 66V14C82 6.26801 75.5753 0 67.65 0Z" fill="#001E36"/>
<path d="M18.4502 56.7174V22.8673C18.4502 22.625 18.5746 22.5039 18.8233 22.5039C21.5237 22.4346 24.9525 22.4 29.1096 22.4C34.013 22.4 37.6017 23.473 39.8757 25.6189C42.1852 27.7648 43.34 30.4126 43.34 33.5623C43.34 37.4734 41.9187 40.3808 39.0762 42.2844C36.2337 44.188 32.6628 45.1398 28.3635 45.1398H25.2189V56.6655C25.2189 56.9424 25.0768 57.0808 24.7926 57.0808H18.8766C18.5923 57.0808 18.4502 56.9597 18.4502 56.7174ZM25.2189 27.3841V40.1558C25.7164 40.225 26.8712 40.2596 28.6833 40.2596C31.0639 40.2596 32.9826 39.7577 34.4394 38.754C35.9317 37.7157 36.6778 36.037 36.6778 33.718C36.6778 31.6759 36.0205 30.1011 34.7058 28.9935C33.4267 27.886 31.5613 27.3322 29.1096 27.3322C28.5056 27.3322 27.9016 27.3495 27.2975 27.3841C26.729 27.3841 26.2494 27.3841 25.8585 27.3841C25.5032 27.3841 25.29 27.3841 25.2189 27.3841Z" fill="#31A8FE"/>
<path d="M61.9349 37.7676C59.9451 36.5562 57.8665 35.9505 55.6991 35.9505C54.4555 35.9505 53.5317 36.1754 52.9277 36.6254C52.3592 37.0753 52.0749 37.6118 52.0749 38.2348C52.0749 38.8578 52.3236 39.4116 52.8211 39.8962C53.3185 40.3461 54.3667 40.8826 55.9656 41.5056C58.9147 42.6132 60.9756 43.79 62.1481 45.036C63.3562 46.2474 63.9602 47.8222 63.9602 49.7605C63.9602 52.1141 63.0364 54.0177 61.1887 55.4714C59.3766 56.8905 56.9072 57.6 53.7804 57.6C50.6537 57.6 48.0954 57.0462 46.1056 55.9387C45.8924 55.8694 45.7858 55.6964 45.7858 55.4195V50.5912C45.7858 50.4527 45.8214 50.3662 45.8924 50.3316C45.999 50.2624 46.0879 50.2624 46.1589 50.3316C48.4685 51.9929 50.9379 52.8236 53.5672 52.8236C54.8108 52.8236 55.7524 52.616 56.392 52.2006C57.0671 51.7507 57.4046 51.1796 57.4046 50.4873C57.4046 49.7605 57.1382 49.1548 56.6052 48.6702C56.0722 48.1511 55.024 47.5973 53.4606 47.0089C50.6181 45.9359 48.6284 44.7937 47.4914 43.5823C46.3899 42.3363 45.8391 40.7788 45.8391 38.9098C45.8391 36.7638 46.6741 34.964 48.3441 33.5103C50.0141 32.0567 52.3947 31.3298 55.4859 31.3298C58.364 31.3298 60.5847 31.7105 62.1481 32.472C62.3257 32.5758 62.4146 32.8008 62.4146 33.1469V37.4561C62.4146 37.8714 62.2547 37.9752 61.9349 37.7676Z" fill="#31A8FE"/>
</svg>
