<svg width="80" height="80" viewBox="0 0 80 80" fill="none" xmlns="http://www.w3.org/2000/svg">
<g clip-path="url(#clip0_242_151)">
<path d="M14.1667 6.44812e-06H65.8333C67.6942 -0.00179242 69.5372 0.372807 71.2568 1.10237C72.9763 1.83193 74.5387 2.90212 75.8546 4.25171C77.1704 5.60129 78.2139 7.20377 78.9252 8.96743C79.6365 10.7311 80.0018 12.6213 80 14.5299V65.4701C80.0018 67.3787 79.6365 69.2689 78.9252 71.0326C78.2139 72.7962 77.1704 74.3987 75.8546 75.7483C74.5387 77.0979 72.9763 78.1681 71.2568 78.8976C69.5372 79.6272 67.6942 80.0018 65.8333 80H14.1667C12.3058 80.0018 10.4628 79.6272 8.74325 78.8976C7.02368 78.1681 5.46126 77.0979 4.14541 75.7483C2.82957 74.3987 1.78613 72.7962 1.07481 71.0326C0.363487 69.2689 -0.00174761 67.3787 6.28692e-06 65.4701V14.5299C-0.00174761 12.6213 0.363487 10.7311 1.07481 8.96743C1.78613 7.20377 2.82957 5.60129 4.14541 4.25171C5.46126 2.90212 7.02368 1.83193 8.74325 1.10237C10.4628 0.372807 12.3058 -0.00179242 14.1667 6.44812e-06Z" fill="#470137"/>
<path d="M41.6128 24.2027L31.6128 40.7027L42.2795 58.2027C42.3497 58.3235 42.3734 58.4657 42.3462 58.6027C42.3128 58.736 42.1795 58.636 41.9795 58.6694H34.3462C33.8128 58.6694 33.4462 58.636 33.2128 58.3027C32.5128 56.9027 31.7795 55.536 31.0795 54.136C30.3795 52.736 29.6128 51.3694 28.8128 49.936C28.0128 48.5027 27.2128 47.0694 26.4128 45.6027H26.3462C25.6462 47.036 24.8795 48.4694 24.1128 49.9027C23.3462 51.336 22.5795 52.7694 21.8462 54.1694C21.1128 55.5694 20.3128 57.0027 19.5462 58.3694C19.4128 58.7027 19.1462 58.736 18.7795 58.736H11.4462C11.3128 58.736 11.2128 58.8027 11.2128 58.636C11.1979 58.5736 11.1962 58.5088 11.2077 58.4457C11.2191 58.3826 11.2436 58.3225 11.2795 58.2694L21.6462 41.2694L11.5462 24.1694C11.4462 24.036 11.4128 23.9027 11.4795 23.836C11.5201 23.7885 11.5717 23.7516 11.6297 23.7283C11.6878 23.7051 11.7506 23.6963 11.8128 23.7027H19.3795C19.5372 23.7061 19.6938 23.7285 19.8462 23.7694C19.9797 23.8412 20.094 23.9441 20.1795 24.0694C20.8128 25.5027 21.5462 26.936 22.3128 28.3694C23.0795 29.8027 23.8795 31.2027 24.7128 32.6027C25.5462 34.0027 26.2462 35.4027 26.9462 36.836H27.0128C27.7128 35.3694 28.4462 33.936 29.1795 32.536C29.9128 31.136 30.6795 29.736 31.4462 28.336C32.2128 26.936 32.9462 25.5027 33.6795 24.136C33.7048 24.0048 33.7756 23.8868 33.8795 23.8027C34.0115 23.7299 34.165 23.7063 34.3128 23.736H41.3462C41.3856 23.7272 41.4263 23.7262 41.4661 23.7332C41.5059 23.7401 41.5439 23.7549 41.578 23.7765C41.612 23.7982 41.6415 23.8264 41.6646 23.8595C41.6878 23.8926 41.7042 23.9299 41.7128 23.9694C41.7462 24.0027 41.6795 24.136 41.6128 24.2027Z" fill="#FF61F6"/>
<path d="M57.0131 59.3694C54.5423 59.41 52.0936 58.8975 49.8465 57.8694C47.7557 56.8917 46.0034 55.3136 44.8131 53.3361C43.5798 51.3028 42.9798 48.7694 42.9798 45.7361C42.946 43.2693 43.5795 40.8392 44.8131 38.7028C46.0781 36.5314 47.9103 34.7453 50.1131 33.5361C52.4465 32.2361 55.2465 31.6028 58.5465 31.6028C58.7803 31.6001 59.014 31.6112 59.2465 31.6361C59.5465 31.6694 59.8798 31.6694 60.2798 31.7028V21.1694C60.2798 20.9361 60.3798 20.8028 60.6131 20.8028H67.3798C67.4545 20.7926 67.5303 20.811 67.5921 20.8543C67.6538 20.8975 67.6971 20.9624 67.7131 21.0361V52.8361C67.7131 53.4361 67.7465 54.1028 67.7798 54.8361C67.8131 55.5694 67.8798 56.2028 67.9131 56.7694C67.9202 56.882 67.8919 56.994 67.8321 57.0896C67.7723 57.1853 67.6841 57.2598 67.5798 57.3028C65.8338 58.0365 64.0115 58.5732 62.1465 58.9028C60.4523 59.2083 58.7346 59.3644 57.0131 59.3694ZM60.2798 52.7028V38.0361C59.983 37.9645 59.6826 37.9088 59.3798 37.8694C59.0131 37.8361 58.6465 37.8028 58.2798 37.8028C56.9732 37.788 55.6819 38.0851 54.5131 38.6694C53.3741 39.237 52.3988 40.086 51.6798 41.1361C50.9465 42.2028 50.5798 43.6361 50.5798 45.3694C50.5508 46.5393 50.743 47.7042 51.1465 48.8028C51.4688 49.6911 51.9807 50.4987 52.6465 51.1694C53.2891 51.7827 54.0649 52.239 54.9131 52.5028C55.806 52.7952 56.7403 52.9415 57.6798 52.9361C58.1798 52.9361 58.6465 52.9028 59.0798 52.8694C59.4871 52.8985 59.8959 52.8417 60.2798 52.7028Z" fill="#FF61F6"/>
</g>
<defs>
<clipPath id="clip0_242_151">
<rect width="80" height="80" fill="white"/>
</clipPath>
</defs>
</svg>
