<svg width="80" height="81" viewBox="0 0 80 81" fill="none" xmlns="http://www.w3.org/2000/svg">
<path d="M66 0H14C6.26801 0 0 6.34636 0 14.175V66.825C0 74.6536 6.26801 81 14 81H66C73.732 81 80 74.6536 80 66.825V14.175C80 6.34636 73.732 0 66 0Z" fill="#000058"/>
<path d="M33.6623 47.3449H22.5826L19.7217 56.6145C19.687 56.8954 19.5136 57.0359 19.2015 57.0359H13.9997C13.653 57.0359 13.5316 56.8603 13.6356 56.5092L23.675 25.4877C23.9177 24.8205 24.0565 23.8549 24.0911 22.5909C24.0911 22.3802 24.1952 22.2749 24.4032 22.2749H31.6857C31.8937 22.2749 32.0151 22.3627 32.0498 22.5382L43.2856 56.5619C43.3896 56.8779 43.3029 57.0359 43.0255 57.0359H37.1995C36.9568 57.0359 36.7834 56.9306 36.6794 56.7199L33.6623 47.3449ZM23.831 42.3415H32.4659C32.2579 41.6041 31.8244 40.1645 31.1655 38.0227C30.5066 35.8808 29.8997 33.8795 29.3449 32.0185C28.79 30.1576 28.3739 28.6829 28.0965 27.5944H28.0445C27.663 29.4202 26.2585 34.3359 23.831 42.3415Z" fill="#9999F9"/>
<path d="M60.4696 45.3436H50.9504C50.9851 47.5907 51.6093 49.3639 52.8231 50.663C54.0368 51.9622 55.8574 52.6118 58.2849 52.6118C60.5043 52.6118 62.481 52.2255 64.2149 51.4531C64.4229 51.3126 64.527 51.3828 64.527 51.6637V55.5085C64.527 55.7543 64.4229 55.965 64.2149 56.1405C62.2382 57.0534 59.8107 57.5099 56.9324 57.5099C52.667 57.5099 49.5286 56.281 47.5173 53.8231C45.5406 51.3302 44.5523 48.2228 44.5523 44.5009C44.5523 40.6385 45.5926 37.4082 47.6733 34.8099C49.754 32.2116 52.5976 30.9125 56.2042 30.9125C59.6373 30.9125 62.1862 31.9834 63.8507 34.1252C65.55 36.2671 66.3996 38.7776 66.3996 41.6568C66.3996 43.0964 66.3302 44.1146 66.1915 44.7115C66.1569 44.9573 66.0181 45.0978 65.7754 45.1329C64.8738 45.2733 63.1052 45.3436 60.4696 45.3436ZM50.9504 41.2881H57.8167C59.3079 41.2881 60.1575 41.253 60.3656 41.1828C60.4003 41.0423 60.4176 40.7965 60.4176 40.4454C60.4176 39.1112 60.0708 37.9173 59.3773 36.864C58.6837 35.8106 57.5566 35.2839 55.9961 35.2839C54.4703 35.2839 53.2912 35.8457 52.4589 36.9693C51.6266 38.0929 51.1238 39.5325 50.9504 41.2881Z" fill="#9999F9"/>
</svg>
