<svg width="27" height="27" viewBox="0 0 27 27" fill="none" xmlns="http://www.w3.org/2000/svg">
<path d="M25.2 0H1.46667C1.07768 0 0.70463 0.154524 0.429577 0.429577C0.154524 0.70463 0 1.07768 0 1.46667V25.2C0 25.3926 0.0379366 25.5833 0.111643 25.7613C0.18535 25.9392 0.293384 26.1009 0.429577 26.2371C0.565769 26.3733 0.727453 26.4813 0.905398 26.555C1.08334 26.6287 1.27406 26.6667 1.46667 26.6667H14.24V16.3333H10.7733V12.3333H14.24V9.33333C14.1682 8.62901 14.2513 7.9175 14.4836 7.24872C14.7159 6.57993 15.0917 5.97006 15.5846 5.46188C16.0776 4.9537 16.6757 4.55952 17.3371 4.30698C17.9985 4.05445 18.7071 3.94967 19.4133 4C20.4511 3.99361 21.4884 4.04704 22.52 4.16V7.76H20.4C18.72 7.76 18.4 8.56 18.4 9.72V12.2933H22.4L21.88 16.2933H18.4V26.6667H25.2C25.3926 26.6667 25.5833 26.6287 25.7613 26.555C25.9392 26.4813 26.1009 26.3733 26.2371 26.2371C26.3733 26.1009 26.4813 25.9392 26.555 25.7613C26.6287 25.5833 26.6667 25.3926 26.6667 25.2V1.46667C26.6667 1.27406 26.6287 1.08334 26.555 0.905398C26.4813 0.727453 26.3733 0.565769 26.2371 0.429577C26.1009 0.293384 25.9392 0.18535 25.7613 0.111643C25.5833 0.0379366 25.3926 0 25.2 0Z" fill="#FFEA9F"/>
</svg>
