<svg width="27" height="27" viewBox="0 0 27 27" fill="none" xmlns="http://www.w3.org/2000/svg">
<rect width="26.3043" height="26.3043" rx="1.94847" fill="#FFEA9F"/>
<path fill-rule="evenodd" clip-rule="evenodd" d="M11.1881 10.316C11.7179 9.96199 12.3407 9.77306 12.9779 9.77306C13.4009 9.77306 13.8198 9.85638 14.2107 10.0183C14.6015 10.1802 14.9567 10.4175 15.2558 10.7166C15.5549 11.0157 15.7922 11.3709 15.9541 11.7617C16.116 12.1526 16.1993 12.5715 16.1993 12.9945C16.1993 13.6317 16.0104 14.2545 15.6564 14.7843C15.3025 15.314 14.7993 15.727 14.2107 15.9708C13.622 16.2146 12.9743 16.2784 12.3494 16.1541C11.7245 16.0298 11.1505 15.723 10.7 15.2725C10.2494 14.8219 9.9426 14.2479 9.8183 13.623C9.694 12.9981 9.7578 12.3504 10.0016 11.7617C10.2454 11.1731 10.6584 10.67 11.1881 10.316ZM22.0707 19.3206C22.3646 18.5736 22.5357 17.784 22.5773 16.9824V16.9694C22.5958 16.4827 22.5851 16.1655 22.5687 15.681V15.681C22.5505 15.1439 22.5254 14.4013 22.5254 12.9945V9.01965C22.5017 8.21653 22.3482 7.42253 22.0707 6.66849C21.8397 6.04775 21.4762 5.48479 21.0056 5.01879C20.5298 4.52293 19.9481 4.14104 19.3039 3.90166C18.5499 3.62421 17.7559 3.47068 16.9528 3.44702H12.9779H9.00299C8.19987 3.47068 7.40588 3.62421 6.65184 3.90166C6.03257 4.1356 5.4702 4.49871 5.00214 4.96683C4.50628 5.44261 4.12439 6.02433 3.88501 6.66849C3.60646 7.42175 3.45714 8.21665 3.44336 9.01965V12.9945V16.9694C3.45714 17.7724 3.60646 18.5673 3.88501 19.3206C4.11603 19.9413 4.47951 20.5043 4.95018 20.9703C5.42596 21.4661 6.00768 21.848 6.65184 22.0874C7.40588 22.3648 8.19987 22.5184 9.00299 22.542H12.9779H16.9528C17.7559 22.5184 18.5499 22.3648 19.3039 22.0874C19.927 21.8352 20.493 21.4603 20.9684 20.985C21.4437 20.5097 21.8186 19.9437 22.0707 19.3206ZM19.7843 6.20114C20.1005 6.51735 20.3443 6.89839 20.499 7.31798V7.30499C20.7225 7.87618 20.8371 8.4842 20.8367 9.09759V12.9945V16.8915C20.8307 17.5042 20.7164 18.1111 20.499 18.6841C20.3443 19.1036 20.1005 19.4847 19.7843 19.8009C19.468 20.1171 19.087 20.361 18.6674 20.5156C18.0945 20.733 17.4876 20.8474 16.8748 20.8534H12.9779H9.08093C8.49074 20.8335 7.90752 20.7194 7.35329 20.5156C6.9337 20.361 6.55265 20.1171 6.23644 19.8009C5.92023 19.4847 5.67639 19.1036 5.52173 18.6841C5.31099 18.1093 5.19687 17.5035 5.18399 16.8915V12.9945V9.09759C5.17598 8.48914 5.26814 7.88351 5.45678 7.30499C5.61923 6.89742 5.86657 6.5291 6.18237 6.2245C6.49816 5.91991 6.87517 5.68602 7.28834 5.53838C7.86128 5.32097 8.46816 5.20663 9.08093 5.20064H12.9779H16.8748C17.4845 5.18998 18.0913 5.28671 18.6674 5.48642C19.087 5.64108 19.468 5.88493 19.7843 6.20114ZM11.0809 17.5787C11.6822 17.8282 12.3269 17.9566 12.9779 17.9566C13.9598 17.9592 14.9205 17.6704 15.7382 17.1267C16.5559 16.583 17.1939 15.8089 17.5715 14.9025C17.9491 13.996 18.0492 12.9979 17.8592 12.0345C17.6692 11.071 17.1976 10.1857 16.5042 9.49041C15.8108 8.79514 14.9266 8.32126 13.9637 8.12874C13.0008 7.93622 12.0024 8.03372 11.095 8.40891C10.1875 8.78409 9.41175 9.42009 8.86593 10.2364C8.32011 11.0527 8.02876 12.0126 8.02876 12.9945C8.02705 13.6455 8.1538 14.2905 8.40175 14.8925C8.6497 15.4944 9.01398 16.0415 9.47372 16.5025C9.93346 16.9634 10.4796 17.3291 11.0809 17.5787ZM17.4278 8.62602C17.6209 8.84067 17.8866 8.97626 18.1738 9.00666C18.4609 8.97626 18.7267 8.84067 18.9198 8.62602C19.113 8.41136 19.2198 8.13282 19.2198 7.84407C19.2198 7.55532 19.113 7.27678 18.9198 7.06212C18.7267 6.84746 18.4609 6.71188 18.1738 6.68148C17.8866 6.71188 17.6209 6.84746 17.4278 7.06212C17.2346 7.27678 17.1278 7.55532 17.1278 7.84407C17.1278 8.13282 17.2346 8.41136 17.4278 8.62602Z" fill="black"/>
</svg>
