<svg width="27" height="27" viewBox="0 0 27 27" fill="none" xmlns="http://www.w3.org/2000/svg">
<path d="M24.5467 0.000186441H1.96C1.7061 -0.00333972 1.454 0.0431831 1.21809 0.137098C0.982174 0.231013 0.767071 0.370481 0.585063 0.547536C0.403056 0.724591 0.257709 0.935766 0.157323 1.169C0.0569365 1.40223 0.00347786 1.65296 0 1.90685V24.7602C0.00347786 25.0141 0.0569365 25.2648 0.157323 25.498C0.257709 25.7313 0.403056 25.9424 0.585063 26.1195C0.767071 26.2966 0.982174 26.436 1.21809 26.5299C1.454 26.6239 1.7061 26.6704 1.96 26.6669H24.5467C24.8006 26.6704 25.0527 26.6239 25.2886 26.5299C25.5245 26.436 25.7396 26.2966 25.9216 26.1195C26.1036 25.9424 26.249 25.7313 26.3493 25.498C26.4497 25.2648 26.5032 25.0141 26.5067 24.7602V1.90685C26.5032 1.65296 26.4497 1.40223 26.3493 1.169C26.249 0.935766 26.1036 0.724591 25.9216 0.547536C25.7396 0.370481 25.5245 0.231013 25.2886 0.137098C25.0527 0.0431831 24.8006 -0.00333972 24.5467 0.000186441ZM8.04 22.3202H4.04V10.3202H8.04V22.3202ZM6.04 8.64019C5.48835 8.64019 4.95929 8.42104 4.56922 8.03097C4.17914 7.64089 3.96 7.11184 3.96 6.56019C3.96 6.00854 4.17914 5.47948 4.56922 5.0894C4.95929 4.69933 5.48835 4.48019 6.04 4.48019C6.33293 4.44697 6.62957 4.47599 6.9105 4.56536C7.19143 4.65474 7.45032 4.80244 7.67021 4.9988C7.8901 5.19516 8.06603 5.43576 8.18649 5.70483C8.30696 5.9739 8.36922 6.26538 8.36922 6.56019C8.36922 6.85499 8.30696 7.14647 8.18649 7.41554C8.06603 7.68461 7.8901 7.92521 7.67021 8.12157C7.45032 8.31793 7.19143 8.46564 6.9105 8.55501C6.62957 8.64438 6.33293 8.67341 6.04 8.64019ZM22.4667 22.3202H18.4667V15.8802C18.4667 14.2669 17.8933 13.2135 16.44 13.2135C15.9902 13.2168 15.5523 13.3579 15.1851 13.6178C14.818 13.8776 14.5393 14.2438 14.3867 14.6669C14.2823 14.9802 14.2371 15.3103 14.2533 15.6402V22.3069H10.2533C10.2533 22.3069 10.2533 11.4002 10.2533 10.3069H14.2533V12.0002C14.6167 11.3697 15.1452 10.8502 15.7819 10.4978C16.4186 10.1454 17.1394 9.97332 17.8667 10.0002C20.5333 10.0002 22.4667 11.7202 22.4667 15.4135V22.3202Z" fill="#FFEA9F"/>
</svg>
