<svg width="27" height="27" viewBox="0 0 27 27" fill="none" xmlns="http://www.w3.org/2000/svg">
<rect width="27" height="27" rx="2" fill="#FFEA9F"/>
<path d="M23.2506 7.67294H17.1243V9.37669H23.2748L23.2506 7.67294ZM21.9577 19.3938C21.4929 19.7017 20.9441 19.8579 20.3868 19.8409C20.018 19.8793 19.6451 19.8412 19.2917 19.7289C18.9382 19.6167 18.6117 19.4326 18.3327 19.1884C17.8167 18.6034 17.5481 17.8409 17.5835 17.0617H25.5827C25.6403 16.2504 25.571 15.435 25.3773 14.645C25.1898 13.8935 24.8618 13.1842 24.4106 12.5546C23.9564 11.9439 23.3698 11.444 22.6948 11.0925C21.9437 10.7222 21.1154 10.5358 20.2781 10.5488C19.4906 10.543 18.71 10.695 17.9823 10.9959C17.3159 11.2768 16.7121 11.6875 16.206 12.2042C15.7014 12.7312 15.3107 13.3564 15.0581 14.0409C14.7871 14.7798 14.652 15.5617 14.6593 16.3488C14.6469 17.147 14.7779 17.941 15.046 18.6929C15.2738 19.3739 15.6353 20.0024 16.1093 20.5417C16.5998 21.0711 17.2026 21.484 17.8735 21.75C18.6216 22.0351 19.4173 22.1745 20.2177 22.1609C21.3407 22.1959 22.4495 21.9019 23.4077 21.315C24.3754 20.6273 25.0722 19.6228 25.3773 18.4754H22.7068C22.5639 18.855 22.3008 19.1775 21.9577 19.3938ZM17.8131 14.4154C17.9071 14.1142 18.0632 13.836 18.2714 13.5987C18.4795 13.3615 18.735 13.1704 19.0214 13.0379C19.4008 12.8672 19.8139 12.7846 20.2298 12.7963C20.5302 12.7706 20.8326 12.8102 21.1162 12.9124C21.3999 13.0146 21.6581 13.177 21.8731 13.3884C22.2837 13.8909 22.5471 14.4974 22.6343 15.1404H17.6198C17.6393 14.8949 17.6839 14.652 17.7527 14.4154H17.8131ZM11.421 13.8354C12.036 13.5794 12.5704 13.1619 12.9677 12.6271C13.3329 12.0592 13.5143 11.3926 13.4873 10.7179C13.511 10.1027 13.391 9.49041 13.1368 8.92961C12.9234 8.44376 12.5806 8.02581 12.146 7.72127C11.6852 7.40466 11.162 7.19041 10.6114 7.09294C9.95992 6.95629 9.2954 6.89146 8.62977 6.89961H1.41602V22.1004H8.78685C9.45951 22.1009 10.1295 22.0157 10.7806 21.8467C11.3977 21.687 11.9824 21.4213 12.5085 21.0613C13.0181 20.7081 13.4331 20.235 13.7168 19.6838C14.0309 19.0673 14.1847 18.3816 14.1639 17.69C14.1868 16.833 13.9464 15.9896 13.4752 15.2734C12.9684 14.5531 12.2167 14.042 11.3606 13.8354H11.421ZM4.7631 9.49752H7.89268C8.1802 9.49717 8.46722 9.52143 8.7506 9.57002C9.01154 9.60869 9.26213 9.69907 9.48768 9.83586C9.7056 9.95913 9.88218 10.1441 9.99518 10.3675C10.1351 10.6354 10.2018 10.9356 10.1885 11.2375C10.211 11.4976 10.1713 11.7593 10.0725 12.001C9.97374 12.2426 9.81883 12.4572 9.6206 12.6271C9.18816 12.9244 8.6707 13.0728 8.14643 13.05H4.7631V9.49752ZM10.6114 18.4875C10.4873 18.7338 10.2996 18.9424 10.0677 19.0917C9.82638 19.2418 9.56051 19.3481 9.28227 19.4059C8.973 19.4751 8.65664 19.5075 8.33977 19.5025H4.71477V15.3338H8.33977C8.96183 15.3065 9.57615 15.4802 10.0918 15.8292C10.3248 16.0383 10.5053 16.2993 10.6187 16.5911C10.732 16.8829 10.7751 17.1972 10.7443 17.5088C10.777 17.8409 10.7315 18.1761 10.6114 18.4875Z" fill="black"/>
</svg>
