<svg id="Layer_1" data-name="Layer 1" xmlns="http://www.w3.org/2000/svg" viewBox="0 0 128.03 134.31"><defs><style>.cls-1{fill:#d8673d;}</style></defs><path class="cls-1" d="M100.05,34.29h-6.8V10.51H24.66V1.26a18,18,0,0,0-18,18V30.88h66.3V53A43.37,43.37,0,1,0,93.25,91V87.07a26.83,26.83,0,1,0,6.8-52.78ZM51.75,112.6h-.07a2,2,0,0,0-.24,0c-.49,0-1,.06-1.5.06s-.77,0-1.15,0a18.19,18.19,0,0,1-2.21-.23,21.69,21.69,0,0,1-3.24-.7,22.8,22.8,0,0,1-6.69-3.29c-.37-.25-.74-.54-1.1-.82l-.46-.37c-.37-.33-.73-.65-1.09-1l-.3-.3a22.2,22.2,0,0,1-2.15-2.49c-.45-.59-.85-1.2-1.24-1.82s-.74-1.3-1.06-2c-.17-.34-.33-.68-.47-1s-.28-.7-.41-1-.3-.86-.43-1.29a23,23,0,0,1-.84-4.25s0-.07,0-.11a21,21,0,0,1,0-4.48s0-.07,0-.11a22.84,22.84,0,0,1,.84-4.25c.13-.43.28-.87.43-1.3s.27-.69.41-1,.23-.51.35-.77l.12-.25c.15-.33.32-.66.5-1A20.26,20.26,0,0,1,30.9,76.9a23.52,23.52,0,0,1,2.8-3.41c.52-.52,1.06-1,1.63-1.48a10.92,10.92,0,0,1,.88-.68A18.26,18.26,0,0,1,38,70.09a20.78,20.78,0,0,1,3-1.52c.35-.16.7-.29,1-.41a21.87,21.87,0,0,1,5.55-1.27,11.11,11.11,0,0,1,1.16-.09c.4,0,.79,0,1.19,0h0a28.29,28.29,0,0,0-3.61,3.11,27.24,27.24,0,0,0-4.7,6.45c-.25.47-.48,1-.7,1.44h0c-.22.49-.43,1-.63,1.49s-.3.81-.43,1.23a2.63,2.63,0,0,0-.09.3c0,.11-.08.23-.11.34-.09.27-.16.55-.23.82s-.14.57-.21.86c-.16.71-.29,1.45-.4,2.19-.07.44-.12.9-.17,1.35-.06.67-.11,1.36-.12,2,0,.14,0,.29,0,.43V89c0,.32,0,.63,0,.94s0,.62,0,.92a26.15,26.15,0,0,0,.32,2.73c.1.54.19,1.07.33,1.6s.31,1.28.5,1.91c.13.42.27.85.43,1.26s.31.84.48,1.25a26.48,26.48,0,0,0,1.58,3.15s.06.09.08.14c.27.46.54.9.84,1.33s.66,1,1,1.42.72.91,1.1,1.35l1,1,.25.25a2,2,0,0,0,.21.2A25.41,25.41,0,0,0,49,110.58a.71.71,0,0,0,.14.1,12.28,12.28,0,0,0,1,.75,3,3,0,0,0,.43.3c.43.3.86.58,1.32.85a0,0,0,0,0,0,0ZM72.91,89.13a6,6,0,0,1-.17,1.4A6.39,6.39,0,0,1,72,92.44,6.94,6.94,0,0,1,70.8,94a7,7,0,1,1-4.91-12,7,7,0,0,1,7,6.19s0,0,0,.1c0,.21,0,.45,0,.7ZM100.05,68a6.85,6.85,0,0,1-6.8-5.91v-1.9a6.86,6.86,0,1,1,6.8,7.81Z"/></svg>