<?xml version="1.0" encoding="UTF-8"?>
<svg xmlns="http://www.w3.org/2000/svg" viewBox="0 0 288 72" width="317" height="79">
  <defs>
    <style>
      .cls-1 {
        fill: #fff;
      }

      .cls-2, .cls-3 {
        fill: #d8673d;
      }

      .cls-4 {
        fill: #427758;
      }

      .cls-5 {
        isolation: isolate;
      }

      .cls-3 {
        mix-blend-mode: exclusion;
      }
    </style>
  </defs>
  <g class="cls-5">
    <g id="Layer_1" data-name="Layer 1">
      <g>
        <path class="cls-1" d="m59.32,4.22h19.28v2.91h-8.08v31.44h-3.27V7.12h-7.93v-2.91Z"/>
        <path class="cls-1" d="m79.4,4.22h3.89l6.29,15.17,6.04-15.17h3.84l-8.27,18.61v15.73h-3.35v-15.73l-8.44-18.61Z"/>
        <path class="cls-1" d="m103.01,4.22h3.35v31.44h12.78v2.9h-16.13V4.22Z"/>
        <path class="cls-1" d="m122.83,4.22h16.69v2.91h-13.34v12.09h12.6v2.86h-12.6v13.64h13.34v2.86h-16.69V4.22Z"/>
        <path class="cls-1" d="m145.04,4.22h8.27c2.99,0,5.39.69,7.2,2.06,1.81,1.37,2.72,3.46,2.72,6.27,0,2.12-.57,3.95-1.71,5.5-1.14,1.55-2.92,2.72-5.33,3.51,1.66.43,2.88,1.16,3.68,2.2.8,1.04,1.4,2.57,1.81,4.59l2.02,10.22h-3.57l-1.36-8.27c-.44-2.63-1.19-4.52-2.23-5.69-1.04-1.17-2.55-1.75-4.52-1.75h-3.72v15.71h-3.27V4.22Zm3.27,3v12.85h3.42c2.43,0,4.39-.64,5.88-1.93,1.49-1.29,2.24-3.03,2.24-5.23,0-1.9-.53-3.33-1.6-4.27-1.07-.94-2.67-1.42-4.8-1.42h-5.15Z"/>
        <path class="cls-1" d="m177.85,31.96c1.76,1.43,3.18,2.41,4.27,2.94,1.09.53,2.2.8,3.34.8,1.79,0,3.38-.64,4.79-1.92s2.11-2.95,2.11-5c0-1.54-.46-2.83-1.38-3.87-.94-1.02-2.72-2.02-5.34-3-5.2-1.97-7.8-4.96-7.8-8.96,0-2.58.92-4.77,2.77-6.59,1.85-1.81,4.06-2.72,6.63-2.72,2.12,0,4.3.79,6.55,2.36v4.46c-1.43-1.33-2.61-2.24-3.53-2.73-.93-.49-1.91-.74-2.94-.74-1.72,0-3.16.59-4.3,1.77s-1.71,2.55-1.71,4.11.51,2.82,1.54,3.73c1.03.91,2.88,1.92,5.58,3.02,1.62.66,2.93,1.32,3.93,2s1.82,1.62,2.49,2.85c.67,1.23,1,2.63,1,4.21,0,2.94-1.02,5.41-3.05,7.41-2.04,2-4.45,3-7.24,3-2.43,0-4.99-.94-7.68-2.83v-4.31Z"/>
        <path class="cls-1" d="m200.55,4.22h3.35v14.92h12.09V4.22h3.35v34.34h-3.35v-16.52h-12.09v16.52h-3.35V4.22Z"/>
        <path class="cls-1" d="m231.92,4.22h3.29l9.58,34.34h-3.74l-2.92-11.87h-9.11l-2.91,11.87h-3.65l9.46-34.34Zm1.58,4.19l-3.8,15.51h7.68l-3.88-15.51Z"/>
        <path class="cls-1" d="m247.82,4.22h16.69v2.91h-13.34v12.09h12.61v2.86h-12.61v13.64h13.34v2.86h-16.69V4.22Z"/>
      </g>
      <g>
        <g>
          <path class="cls-2" d="m9.46,55.77v2.34c0,.12,0,.25.01.38-2.37-1.43,28.45,3.7-.01,5.05v2.72h3.29v-2.72c-.51-1.34-.51-6.48.02-5.05,0-.13-.01-.26-.02-.38v-2.34h-3.29ZM1.55,31.93v2.88h7.91v1.56c0,.19,0,.4,0,.61-2.36-.47-2.36,4.67.08,6.49-.03.14-.04.28-.07.42v4.8h3.29v-4.39q-.51-2.65,0-7.32c0-.22,0-.42,0-.61v-1.56h8.07v-2.88H1.55Zm7.91,18.19v2.67h3.29v-2.67h-3.29Z"/>
          <path class="cls-2" d="m30.11,50.53v2.26h3.34v-2.26l.21-.41h-3.75l.21.41Zm7.76-18.6l-1.62,4.05c-.05.12-.1.24-.15.37-8.46.15,1.82,5.29-4.1,10.25-.04.1-.08.19-.11.26l-.09.22-.09-.22c-.03-.07-.07-.16-.11-.26,6.31-4.96-9.1-4.96-4.24-10.25l-.15-.37-1.67-4.05h-3.9l2.16,4.72c.06.13.12.26.17.39-6.59,4.6,8.83,4.6,4.28,9.33l.26.57.8,1.74h4.98l.77-1.74c.08-.18.16-.37.26-.57,7.75.41-2.52-4.73,4.48-10.1.06-.12.11-.25.16-.37,1.02-2.3,1.77-3.97,1.77-3.97h-3.85Zm-7.76,23.84v1.32c28.36-.04,28.36,5.1.03,4.79-.03.29-.03.57-.03.85v3.52h3.34v-3.52c.02-.27.05-.55.1-.83-.76.3-.76-4.84-.1-4.8v-1.32h-3.34Z"/>
          <path class="cls-2" d="m45.27,31.93v1.04c0,.16,0,.34,0,.54-2.21-2.15-2.21,2.99-1.01,5.13-.04.12-.08.23-.12.35-.97,2.8-.59,3.3,1.14,5.61v4.08h3.34v-4.08c-.32-2.31-.39-2.82-.21-5.8,0-.12.01-.24.02-.37-.22-1.93-.22-7.07.18-5.09,0-.18.01-.34.01-.49v-.93h-3.34Zm0,20.86h3.34v-2.67h-3.34v2.67Zm3.34,7.59c0-.13,0-.27,0-.4v-4.21h-3.34v2.72c-2.21-1.43-2.21,3.7,0,5.79v1.98h16.13v-2.88h-12.49c-.19,0-.3,0-.3-2.99Z"/>
          <path class="cls-2" d="m68.44,63.43v-7.65h-3.39v10.48h16.7v-2.83h-13.31Zm-3.39-10.63h3.39v-2.67h-3.39v2.67Zm16.7-17.98v-2.88h-16.7v2.21c0,.11,0,.23,0,.35-1.44,2.02-1.44,7.16-.82,4.83-.04.21-.08.41-.11.59-.37,2.03-.06,2.66.94,4.7,0,.13,0,.26,0,.39v3.69h15.98v-1.75h-12.59v-1.89c0-.11,0-.23,0-.35.17-1.71.25-2.46.22-3.78,0-.15,0-.3-.01-.46.09,1.2.09-3.94-.22-5.44,0-.13,0-.19,0-.19h13.31Z"/>
          <path class="cls-2" d="m102.76,33.99c-1.8-1.39-4.21-2.06-7.19-2.06h-8.27v5.3c0,.14-.02.28-.03.42,2.04-1.15,2.04,3.99.03,4.43,0,.15,0,.29,0,.44v6.15h12.59c1.7-.72,2.98-1.7,3.85-2.93,1.18-1.54,1.75-3.39,1.75-5.5,0-2.83-.93-4.88-2.72-6.27Zm-2.88,11.87c-1.54,1.28-3.49,1.9-5.91,1.9h-3.44v-5.12c0-.14,0-.29,0-.43-1.23-.57-1.23-5.7,0-4.95,0-.12,0-.23,0-.34v-2.01h5.19c2.11,0,3.7.51,4.78,1.44s1.59,2.36,1.59,4.26c0,2.21-.72,3.96-2.21,5.24Zm.72,4.26h-13.31v2.67h3.24v-2.21h3.75c1.95,0,3.44.57,4.52,1.75.15.15.26.31.36.46h3.75c-.26-.51-.51-.98-.82-1.34-.36-.51-.87-.98-1.49-1.34Zm3.44,6.47l-.1-.57c0-.1-.05-.15-.05-.26h-3.39c.21.67.36,1.39.51,2.21l1.34,8.27h3.6l-1.9-9.66Zm-16.75-.82v10.48h3.24v-10.48h-3.24Z"/>
          <path class="cls-2" d="m137.08,52.18c-.46-.82-.98-1.54-1.59-2.06h-6.42c2,.82,3.39,1.64,4.16,2.52.05.05.1.1.1.15h4.01c-.05-.21-.15-.41-.26-.62Zm-6.42-4.83c-2.67-1.13-4.57-2.11-5.6-3.03-.98-.92-1.49-2.16-1.49-3.75s.57-2.93,1.7-4.06c.34-.37.71-.68,1.1-.93.13-.08.27-.16.4-.23q3.64,1.17,8.48,2.15c.08.07.16.15.25.23.17.15.34.31.51.48v-.19c0-.12,0-.3,0-.51-.46-1-.46-6.13-2.21-5.09-.18-.09-.37-.17-.55-.25-1.28-.53-2.54-.8-3.77-.8-2.57,0-4.78.87-6.63,2.72-1.85,1.8-2.77,4.01-2.77,6.58,0,3.44,1.9,6.11,5.7,8.01h7.76c-.82-.41-1.75-.87-2.88-1.34Zm6.42,4.83c-.46-.82-.98-1.54-1.59-2.06h-6.42c2,.82,3.39,1.64,4.16,2.52.05.05.1.1.1.15h4.01c-.05-.21-.15-.41-.26-.62Zm.92,3.6h-3.44c.05.26.05.46.05.72,0,2.05-.72,3.7-2.11,4.98-1.44,1.28-3.03,1.95-4.78,1.95-1.18,0-2.26-.26-3.34-.82-1.13-.51-2.52-1.49-4.32-2.93v4.32c2.72,1.85,5.29,2.83,7.71,2.83,2.77,0,5.19-1.03,7.24-3.03,1.95-1.95,2.98-4.37,3.03-7.19v-.21c0-.21,0-.41-.05-.62Zm-.92-3.6c-.46-.82-.98-1.54-1.59-2.06h-6.42c2,.82,3.39,1.64,4.16,2.52.05.05.1.1.1.15h4.01c-.05-.21-.15-.41-.26-.62Zm0,0c-.46-.82-.98-1.54-1.59-2.06h-6.42c2,.82,3.39,1.64,4.16,2.52.05.05.1.1.1.15h4.01c-.05-.21-.15-.41-.26-.62Z"/>
          <path class="cls-2" d="m158.24,52.79h3.34v-2.67h-3.34v2.67Zm0-20.86v14.9h-12.12v-14.9h-3.34v16.75h18.8v-16.75h-3.34Zm-15.46,20.86h3.34v-2.67h-3.34v2.67Zm15.46,2.98v10.48h3.34v-10.48h-3.34Zm-15.46,0v10.48h3.34v-10.48h-3.34Z"/>
          <path class="cls-2" d="m175.76,36.1s.27,1.1.66,2.65c.03.12.06.24.09.36.12,2.54.12,7.67,1.34,5.39.03.14.07.27.1.4.53,2.12.94,3.78.94,3.78h3.24l-1.11-3.97c-.03-.12-.07-.24-.1-.37.85,2.44.85-2.7-1.35-4.87-.04-.14-.08-.28-.12-.42-1.04-3.73-1.99-7.12-1.99-7.12h-3.29l-4.62,16.75h3.13l1.23-5.01c.04-.14.08-.28.12-.42-2.53-1.6,2.61-1.6.84-3.37.02-.13.05-.26.07-.39l.83-3.39Zm6.78,14.03h-3.29l.36,1.49h-7.65l.36-1.49h-3.19l-.72,2.67h14.85l-.72-2.67Zm1.75,6.47l-.21-.82h-3.34l2.52,10.48h3.75l-2.72-9.66Zm-8.53-20.5s.27,1.1.66,2.65c.03.12.06.24.09.36.12,2.54.12,7.67,1.34,5.39.03.14.07.27.1.4.53,2.12.94,3.78.94,3.78h3.24l-1.11-3.97c-.03-.12-.07-.24-.1-.37.85,2.44.85-2.7-1.35-4.87-.04-.14-.08-.28-.12-.42-1.04-3.73-1.99-7.12-1.99-7.12h-3.29l-4.62,16.75h3.13l1.23-5.01c.04-.14.08-.28.12-.42-2.53-1.6,2.61-1.6.84-3.37.02-.13.05-.26.07-.39l.83-3.39Zm6.78,14.03h-3.29l.36,1.49h-7.65l.36-1.49h-3.19l-.72,2.67h14.85l-.72-2.67Zm-14.95,5.65l-2.88,10.48h3.65l2.31-9.66.21-.82h-3.29Z"/>
          <path class="cls-2" d="m190.04,50.12v2.67h3.34v-2.67h-3.34Zm16.7-15.31v-2.88h-16.7v5.72c.02.29.03.58.07.87,1.93-2.02,1.93,3.12.07,3.56-.05.29-.09.58-.14.87v5.72h15.98v-1.75h-12.64v-3.42c0-.28.02-.56.05-.85-1.38-1.02-1.38-6.16-.03-4.44-.01-.28-.01-.54-.01-.8v-2.62h13.36Zm-13.36,28.62v-7.65h-3.34v10.48h16.7v-2.83h-13.36Z"/>
        </g>
        <g>
          <rect class="cls-2" x="9.46" y="52.78" width="4.97" height="2.98"/>
          <rect class="cls-2" x="40.65" y="52.78" width="5.04" height="2.98"/>
          <rect class="cls-2" x="63.54" y="52.78" width="5.04" height="2.98"/>
          <rect class="cls-2" x="93.41" y="52.78" width="5.12" height="2.98"/>
          <rect class="cls-2" x="127.01" y="52.78" width="4.89" height="2.98"/>
          <path class="cls-2" d="m152.08,55.76h-5.12c-.54-1.23-1.16-2.21-2.02-2.98h5.66c.62.82,1.09,1.8,1.47,2.98Z"/>
          <path class="cls-2" d="m203.6,55.76h-5.2c-.16-1.13-.78-2.16-1.86-2.98h6.05c.62.87.93,1.9,1.01,2.98Z"/>
          <rect class="cls-2" x="210.81" y="52.78" width="5.04" height="2.98"/>
          <rect class="cls-2" x="234.17" y="52.78" width="5.04" height="2.98"/>
          <polygon class="cls-2" points="273.2 55.76 268.15 55.76 267.61 54.37 253.8 54.37 253.26 55.76 248.29 55.76 249.53 52.78 271.96 52.78 273.2 55.76"/>
          <rect class="cls-2" x="282.2" y="52.78" width="5.04" height="2.98"/>
        </g>
        <g>
          <rect class="cls-2" x="9.46" y="48.68" width="3.37" height="1.44"/>
          <polygon class="cls-2" points="34.92 48.68 34.28 50.12 30.44 50.12 29.8 48.68 34.92 48.68"/>
          <rect class="cls-2" x="46.19" y="48.68" width="3.43" height="1.44"/>
          <polygon class="cls-2" points="82.88 48.68 82.88 49.76 69.97 49.76 69.97 50.12 66.49 50.12 66.49 48.68 82.88 48.68"/>
          <path class="cls-2" d="m102.96,50.12h-13.65v-1.44h12.91c-.47.21-.95.41-1.48.57.84.21,1.58.51,2.21.87Z"/>
          <path class="cls-2" d="m138.75,50.12h-6.64c-.37-.21-.74-.36-1.16-.51-.79-.31-1.48-.62-2.16-.92h7.96c.37.26.74.46,1.05.67.37.21.69.46.95.77Z"/>
          <polygon class="cls-2" points="165.52 48.68 165.52 50.12 162.09 50.12 162.09 49.76 149.66 49.76 149.66 50.12 146.23 50.12 146.23 48.68 165.52 48.68"/>
          <polygon class="cls-2" points="176.91 48.68 176.54 50.12 173.27 50.12 173.69 48.68 176.91 48.68"/>
          <polygon class="cls-2" points="187.02 50.12 183.65 50.12 183.28 48.68 186.6 48.68 187.02 50.12"/>
          <polygon class="cls-2" points="211.11 48.68 211.11 49.76 198.15 49.76 198.15 50.12 194.72 50.12 194.72 48.68 211.11 48.68"/>
        </g>
      </g>
      <rect class="cls-3" x="164.13" y="58.27" width="62.73" height=".95" transform="translate(390.98 117.48) rotate(-180)"/>
    </g>
    <g id="Layer_3" data-name="Layer 3">
      <polygon class="cls-4" points="166.65 59.22 166.91 58.27 170.27 58.27 170.05 59.22 166.65 59.22"/>
      <polygon class="cls-4" points="181.34 58.27 181.57 59.22 185.03 59.22 184.76 58.27 181.34 58.27"/>
      <rect class="cls-4" x="190.04" y="58.27" width="3.34" height=".95"/>
    </g>
  </g>
</svg>