<?xml version="1.0" encoding="UTF-8"?>
<svg id="Layer_2" data-name="Layer 2" xmlns="http://www.w3.org/2000/svg" viewBox="0 0 271.93 29.81">
  <defs>
    <style>
      .cls-1 {
        fill: #fff;
        stroke-width: 0px;
      }
    </style>
  </defs>
  <g id="Layer_1-2" data-name="Layer 1">
    <g>
      <path class="cls-1" d="M10.86,3.4H.01V1.04s24.23,0,24.23,0v2.36h-10.82v26.13h-2.56V3.4Z"/>
      <path class="cls-1" d="M38.35,16.57L25.48,1.04h3.13l11.05,13.15L50.67,1.04h3.12l-12.86,15.53v12.94h-2.58v-12.94Z"/>
      <path class="cls-1" d="M58.29,1.04h2.56v26.13s17.66,0,17.66,0v2.36h-20.22V1.04Z"/>
      <path class="cls-1" d="M84.33,1.04h22v2.33h-19.45v9.58h14.5v2.3h-14.5v11.91h19.46v2.36h-22.01V1.04Z"/>
      <path class="cls-1" d="M132.61,29.53l-16.56-13.1v13.1h-2.56V1.04h13.06c5.84,0,10.02,2.74,10.02,8.09s-3.99,8.07-9.84,8.07h-5.97l15.9,12.32h-4.03ZM116.05,14.85h10.67c4.2,0,7.21-1.75,7.21-5.72s-3-5.74-7.21-5.74h-10.67v11.46Z"/>
      <path class="cls-1" d="M153.69,26.41l1.39-2.01c3.24,1.99,7.55,3.12,11.57,3.07,4.92-.06,8.4-2,8.41-5.39,0-3.06-2.12-4.2-7.1-5.38l-3.99-.94c-5.83-1.36-8.91-3.55-8.94-7.62-.04-4.51,4.44-7.32,10.74-7.38,4.04-.04,7.98,1.17,10.94,3.04l-1.33,2.01c-2.71-1.71-6.01-2.76-9.4-2.71-4.9.09-8.28,1.86-8.24,5.11.03,2.8,2.33,4.19,7,5.29l4.14.96c6,1.39,8.78,3.43,8.82,7.59.04,4.75-4.59,7.73-11.14,7.76-4.72.02-9.51-1.27-12.86-3.4Z"/>
      <path class="cls-1" d="M184.49,1.04h2.56v11.92h19.69V1.04h2.56v28.49h-2.56l-.03-14.19h-19.67v14.19h-2.56V1.04Z"/>
      <path class="cls-1" d="M229.78,0l15.67,29.58h-2.78l-3.71-7.14h-18.47l-3.81,7.15h-2.85L229.78,0ZM237.8,20.26l-8.05-15.35-8.12,15.35h16.17Z"/>
      <path class="cls-1" d="M249.92,1.04h22v2.33h-19.45v9.58h14.5v2.3h-14.5v11.91h19.46v2.36h-22.01V1.04Z"/>
    </g>
  </g>
</svg>