<svg width="123" height="136" viewBox="0 0 123 136" fill="none" xmlns="http://www.w3.org/2000/svg">
<path d="M95.5675 34.0721H88.6188V9.54183H18.5282V0C13.6498 0 8.97128 1.95625 5.52177 5.43841C2.07226 8.92056 0.134351 13.6434 0.134351 18.5679V30.5545H67.8849V53.3724C59.6098 48.1277 49.8498 45.7905 40.1229 46.7243C30.3959 47.6582 21.2473 51.8107 14.1 58.536C6.95275 65.2613 2.20746 74.1824 0.602238 83.9117C-1.00298 93.641 0.62185 103.633 5.22401 112.334C9.82618 121.035 17.1477 127.956 26.0497 132.022C34.9518 136.088 44.9354 137.07 54.4476 134.816C63.9599 132.562 72.4675 127.198 78.6474 119.558C84.8272 111.918 88.3328 102.43 88.6188 92.5712V88.5172C92.3885 89.5166 96.326 89.6932 100.169 89.0351C104.011 88.3771 107.671 86.8995 110.903 84.701C114.136 82.5025 116.866 79.6335 118.914 76.2855C120.961 72.9374 122.277 69.1873 122.775 65.2851C123.273 61.3828 122.941 57.4183 121.802 53.6558C120.662 49.8933 118.741 46.4193 116.166 43.4655C113.591 40.5118 110.422 38.1461 106.87 36.5263C103.318 34.9065 99.4651 34.0699 95.5675 34.0721V34.0721ZM46.2108 114.853H46.1393C46.0576 114.848 45.9757 114.848 45.894 114.853C45.3933 114.853 44.8722 114.915 44.3612 114.915C43.8503 114.915 43.5744 114.915 43.1861 114.915C42.4292 114.882 41.675 114.803 40.9277 114.677C39.8075 114.522 38.7006 114.281 37.6168 113.955C35.169 113.21 32.8594 112.064 30.7805 110.561C30.4024 110.304 30.0243 110.004 29.6564 109.716L29.1863 109.334C28.8082 108.994 28.4404 108.663 28.0725 108.302L27.7659 107.993C26.9717 107.193 26.2373 106.334 25.5689 105.424C25.109 104.816 24.7003 104.186 24.3018 103.547C23.9032 102.907 23.5456 102.206 23.2186 101.484C23.0449 101.133 22.8814 100.782 22.7383 100.452C22.5952 100.122 22.4522 99.7302 22.3193 99.4207C22.1865 99.1113 22.0128 98.5336 21.8799 98.09C21.4578 96.6592 21.1704 95.1913 21.0215 93.7059C21.0215 93.7059 21.0215 93.6337 21.0215 93.5925C20.8583 92.0564 20.8583 90.5072 21.0215 88.9711C21.0215 88.9711 21.0215 88.8989 21.0215 88.8577C21.1694 87.3721 21.4568 85.9042 21.8799 84.4736C22.0128 84.03 22.166 83.5761 22.3193 83.1326C22.4726 82.689 22.5952 82.4208 22.7383 82.101C22.8814 81.7812 22.9733 81.5749 23.0959 81.3067L23.2186 81.0488C23.3719 80.7084 23.5456 80.368 23.7295 80.0173C24.0845 79.3322 24.4768 78.6676 24.9047 78.0264C25.7471 76.7659 26.7051 75.5882 27.7659 74.5088C28.2973 73.9724 28.8491 73.4773 29.4316 72.9821C29.7193 72.733 30.0195 72.4989 30.3308 72.2807C30.9148 71.8179 31.5256 71.3908 32.16 71.0015C33.1382 70.3961 34.1635 69.8718 35.2256 69.4336C35.5833 69.2685 35.941 69.1344 36.2475 69.0107C38.0734 68.3264 39.98 67.8859 41.9189 67.7006C42.3122 67.6488 42.7079 67.6178 43.1043 67.6077C43.5131 67.6077 43.9116 67.6077 44.3204 67.6077C43.0035 68.5705 41.7695 69.6437 40.6314 70.8159C38.7155 72.7836 37.0972 75.0255 35.8285 77.4694C35.5731 77.9542 35.338 78.5009 35.1132 78.9548C34.8884 79.4602 34.6738 79.9863 34.4694 80.4918C34.2651 80.9973 34.1629 81.3273 34.03 81.7606C33.9933 81.8618 33.9626 81.9652 33.9381 82.0701C33.9381 82.1835 33.8563 82.3073 33.8257 82.4208C33.7337 82.6993 33.6622 82.9881 33.5906 83.2667C33.5191 83.5452 33.4476 83.8546 33.376 84.1538C33.2125 84.8862 33.0797 85.6495 32.9673 86.4129C32.8958 86.8668 32.8447 87.3413 32.7936 87.8055C32.7323 88.4966 32.6812 89.2084 32.6709 89.8686C32.6709 90.013 32.6709 90.1677 32.6709 90.3121V90.5081C32.6709 90.8382 32.6709 91.158 32.6709 91.4778C32.6709 91.7976 32.6709 92.1174 32.6709 92.4268C32.731 93.3707 32.8401 94.3107 32.9979 95.2429C33.1001 95.8 33.1921 96.3467 33.3352 96.8934C33.4782 97.4402 33.652 98.2138 33.8461 98.8637C33.979 99.2969 34.122 99.7405 34.2855 100.163C34.449 100.586 34.6023 101.03 34.776 101.453C35.2421 102.571 35.7815 103.657 36.3906 104.702C36.3906 104.702 36.4519 104.795 36.4723 104.847C36.7482 105.321 37.0241 105.775 37.3307 106.219C37.6373 106.662 38.0052 107.25 38.3526 107.683C38.7 108.117 39.0883 108.622 39.4767 109.076L40.4985 110.108L40.754 110.365C40.8205 110.439 40.8922 110.508 40.9686 110.572C41.7328 111.355 42.5451 112.089 43.4007 112.769C43.444 112.809 43.4921 112.844 43.5437 112.872C43.8711 113.147 44.2122 113.406 44.5656 113.646C44.7028 113.762 44.8499 113.865 45.005 113.955C45.4444 114.265 45.8838 114.554 46.3539 114.832L46.2108 114.853ZM67.8338 90.6422C67.8323 91.1288 67.774 91.6136 67.66 92.0864C67.5146 92.7799 67.2592 93.4452 66.9039 94.0567C66.5729 94.6492 66.16 95.191 65.6776 95.6659C64.8399 96.4944 63.8133 97.1023 62.688 97.4361C61.5628 97.7698 60.3736 97.8192 59.225 97.5798C58.0765 97.3404 57.0039 96.8196 56.1016 96.0633C55.1994 95.307 54.4952 94.3383 54.0511 93.2426C53.6069 92.1469 53.4365 90.9578 53.5548 89.7799C53.673 88.6021 54.0764 87.4717 54.7293 86.4882C55.3822 85.5048 56.2646 84.6984 57.2988 84.1403C58.3331 83.5821 59.4874 83.2892 60.6602 83.2873C62.4223 83.2753 64.1267 83.9204 65.4467 85.0987C66.7667 86.277 67.6095 87.9057 67.8133 89.6726C67.8133 89.6726 67.8133 89.6726 67.8133 89.7757C67.8133 89.9924 67.8133 90.2399 67.8133 90.4978L67.8338 90.6422ZM95.5675 68.8456C93.8749 68.8493 92.2382 68.2337 90.9606 67.1128C89.683 65.9919 88.851 64.4417 88.6188 62.7491V60.7892C88.805 59.4448 89.3703 58.1828 90.2474 57.1538C91.1245 56.1248 92.2762 55.3722 93.5653 54.9857C94.8544 54.5991 96.2264 54.5951 97.5178 54.9739C98.8091 55.3528 99.9652 56.0986 100.848 57.1224C101.731 58.1462 102.304 59.4048 102.498 60.748C102.692 62.0913 102.499 63.4626 101.943 64.6983C101.386 65.934 100.489 66.9821 99.3587 67.7174C98.2283 68.4528 96.9123 68.8444 95.5675 68.8456Z" fill="#403F3F"/>
</svg>
