<?xml version="1.0" encoding="UTF-8"?>
<svg id="Layer_1" data-name="Layer 1" xmlns="http://www.w3.org/2000/svg" viewBox="0 0 288 33.66">
  <defs>
    <style>
      .cls-1 {
        fill: #fff;
        stroke-width: 0px;
      }
    </style>
  </defs>
  <path class="cls-1" d="M15.12,2.72H2.96v-.72s25.04,0,25.04,0v.72h-12.11v28.74h-.78V2.72Z"/>
  <path class="cls-1" d="M43.26,17.35L29.5,2h1.01l13.16,14.67,13.11-14.67h1l-13.74,15.35v14.1h-.78v-14.1Z"/>
  <path class="cls-1" d="M62.78,2h.74v28.74s19.96,0,19.96,0v.72h-20.69V2Z"/>
  <path class="cls-1" d="M89.89,2h22.23v.67h-21.49v12.29h16.33v.71h-16.33v15.06h21.49v.72h-22.23V2Z"/>
  <path class="cls-1" d="M122.13,17.63l20.49,13.83h-1.3l-20.69-14.01v14.01h-.74V2h12.97c5.65,0,9.98,2.51,9.98,7.86s-4.31,7.77-9.96,7.77h-10.75ZM120.63,16.92h12.25c5.29,0,9.18-2.1,9.18-7.06s-3.88-7.11-9.18-7.11h-12.25v14.17Z"/>
  <path class="cls-1" d="M161.23,28.16l.42-.6c3.55,2.23,8.45,3.49,13,3.42,6.06-.09,10.49-2.53,10.44-6.87-.04-3.85-2.78-5.3-8.77-6.74l-4.36-1.05c-5.75-1.38-9.2-3.27-9.25-7.37-.05-4.55,4.4-7.08,10.93-7.18,4.07-.06,8.07,1.14,11.14,3.13l-.44.61c-3.02-1.96-6.84-3.11-10.68-3.02-6.08.14-10.26,2.37-10.2,6.47.05,3.51,2.99,5.27,8.76,6.65l4.42,1.05c6.15,1.47,9.15,3.28,9.2,7.41.05,4.82-4.68,7.59-11.19,7.63-4.98.04-9.91-1.28-13.41-3.54Z"/>
  <path class="cls-1" d="M193.17,2h.74v12.96h23.58V2h.74v29.45h-.74v-15.73h-23.58v15.73h-.74V2Z"/>
  <path class="cls-1" d="M239.4,1.03l15.86,30.51h-.84l-4.27-8.31h-21.62l-4.43,8.31h-.88S239.4,1.03,239.4,1.03ZM249.8,22.53l-10.4-19.93-10.53,19.93h20.93Z"/>
  <path class="cls-1" d="M260.27,2h22.23v.67h-21.49v12.29h16.33v.71h-16.33v15.06h21.5v.72h-22.23V2Z"/>
</svg>